<?xml version="1.0" encoding="utf-8"?>
<!-- Generator: Adobe Illustrator 25.2.3, SVG Export Plug-In . SVG Version: 6.00 Build 0)  -->
<svg version="1.1" id="Layer_1" xmlns="http://www.w3.org/2000/svg" xmlns:xlink="http://www.w3.org/1999/xlink" x="0px" y="0px"
	 viewBox="0 0 1920 1080" style="enable-background:new 0 0 1920 1080;" xml:space="preserve">
<style type="text/css">
	.st0{fill:#FFFFFF;}
</style>
<path class="st0" d="M1329.78,229.58c-2.93,0-5.7,0.59-8.55,0.86c30.13,4.2,53.4,29.8,53.4,61.09c0,34.21-27.74,61.95-61.95,61.95
	c-34.21,0-61.95-27.74-61.95-61.95c0-7.12,1.45-13.85,3.66-20.21c-8.76,13.82-14.01,30.09-14.01,47.66c0,49.37,40.03,89.4,89.4,89.4
	c49.37,0,89.4-40.03,89.4-89.4S1379.16,229.58,1329.78,229.58z"/>
<path class="st0" d="M1728.15,152.06l-0.02-0.02c-15.39-15.31-34.44-23.07-56.6-23.07c-13.44,0-26.43,3.59-38.62,10.7
	c-11.74,6.86-21.35,16.05-28.44,27.15L1322.5,588.82l-281.8-421.68c-7.26-11.34-16.9-20.58-28.77-27.61
	c-11.26-6.49-23-9.86-35.03-10.2l-40.4-0.37c-13.44,0-26.43,3.59-38.62,10.7c-11.74,6.86-21.35,16.05-28.44,27.15L587.49,588.8
	L305.67,167.14c-7.27-11.34-16.91-20.6-28.78-27.61c-12.16-7.01-25.12-10.56-38.51-10.56c-22.16,0-41.21,7.76-56.62,23.09
	c-15.37,15.37-23.16,34.14-23.16,55.75v608.92l389.14-0.15h79.38h655.65h79.38l389.14,0.15V207.81
	C1751.31,186.19,1743.52,167.43,1728.15,152.06z M239.6,774.96h-39.23V207.81c0-10.45,3.46-18.75,10.92-26.16
	c7.44-7.45,16.05-10.92,27.1-10.92c6.2,0,11.75,1.57,17.42,4.87c6.26,3.7,10.96,8.2,14.91,14.38l291.7,436.37l-12.86,19.3
	l-8.94,10.94c-3.04,3.73-5.99,6.68-8.71,9.06L239.6,237.78V774.96z M490.76,679.33h-209.4V372.88L490.76,679.33z M588.3,745.76
	c-0.36,0.6-0.87,1.41-2.53,3.68l-1.71,2.6c-0.69,0.84-1.39,1.41-2.06,2.03l-1.87,1.79c-3.32,3.79-7.29,7.32-12.11,10.76l-1.53,1.04
	c-2.41,1.65-5.4,2.78-8.95,4.12c-5.43,2.1-9.13,2.96-9.78,3.04H281.36v-53.74h182.86c6.78-0.04,41-0.29,48.25-1.41
	c2.19-0.31,4.43-0.75,7.02-1.37c11.53-2.62,21.39-7.1,28.63-12.81c9.88-6.64,17.53-13.56,25.45-23.33l320.11-476.53
	c-0.02,0.73-0.03,1.46-0.03,2.18v90.9L618.42,700.39l0.2,0.13C608.3,716.01,588.6,745.29,588.3,745.76z M893.53,372.88v306.45
	H684.15L893.53,372.88z M1628.56,774.82h-266.39h-8.59l37.02-53.62l15.01-0.12h222.96V774.82z M1628.56,679.33h-209.38
	l209.38-306.45V679.33z M1709.55,774.96h-39.23V237.78l-346.77,507.65c-5.18,8.18-22.6,29.4-40.77,29.4H627.13h-8.38l36.86-53.73
	l14.95-0.02H935.4V207.81c0-10.45,3.46-18.75,10.92-26.16c3.72-3.7,7.87-6.42,12.24-8.14c8.98-3,21.08-0.97,28.07,0.88l5.34,1.9
	c5.7,3.55,10.07,7.9,13.78,13.7l291.68,436.39l-12.81,19.27l-8.96,10.94c-3.04,3.73-5.97,6.66-8.7,9.04
	c-18.87-27.74-75.3-110.71-131.9-193.63C991.27,261.37,974.52,240.4,974.52,240.4v480.68h256.33c3.61,0,36.38,0.79,52.3-15.59
	c6.67-4.48,15.51-11.07,24.83-22.49l10.13-12.55l321.33-480.83c3.69-5.78,8.47-10.34,14.59-13.94c5.74-3.37,11.3-4.94,17.5-4.94
	c11.04,0,19.65,3.46,27.14,10.94c7.42,7.39,10.88,15.68,10.88,26.13V774.96z M1225.79,679.33h-209.4V372.88L1225.79,679.33z"/>
<g>
	<polygon class="st0" points="239.85,875.7 204.28,918.17 168.72,875.7 158.61,875.7 158.61,930.59 169.39,930.59 169.39,892.98 
		200.76,930.59 207.8,930.59 239.39,892.94 239.39,930.59 249.96,930.59 249.96,875.7 	"/>
	<path class="st0" d="M455.68,897.75v10.78h48.69v11.48h-45.81c-2.29,0-4.48-0.46-6.52-1.36c-2.08-0.92-3.91-2.15-5.43-3.68
		c-1.51-1.51-2.7-3.28-3.55-5.28c-0.84-1.98-1.27-4.15-1.27-6.45c0-2.32,0.43-4.54,1.28-6.6c0.84-2.05,2.03-3.85,3.53-5.35
		c1.5-1.5,3.3-2.69,5.36-3.54c2.07-0.85,4.29-1.28,6.6-1.28h54.41V875.7h-54.41c-3.81,0-7.43,0.76-10.75,2.26
		c-3.26,1.46-6.16,3.46-8.63,5.92c-2.46,2.46-4.45,5.36-5.92,8.63c-1.5,3.33-2.26,6.95-2.26,10.75c0,3.81,0.76,7.42,2.26,10.75
		c1.47,3.26,3.46,6.17,5.92,8.63c2.48,2.48,5.41,4.45,8.69,5.84c3.31,1.41,6.91,2.12,10.69,2.12h56.59v-32.84H455.68z"/>
	<rect x="580.35" y="875.7" class="st0" width="10.78" height="54.89"/>
	<path class="st0" d="M672.14,891.3c1.5-1.5,3.3-2.69,5.36-3.54c2.07-0.85,4.29-1.28,6.6-1.28h54.41V875.7H684.1
		c-3.81,0-7.43,0.76-10.75,2.26c-3.26,1.46-6.16,3.46-8.63,5.92c-2.46,2.46-4.45,5.36-5.92,8.63c-1.5,3.33-2.26,6.95-2.26,10.75
		c0,3.81,0.76,7.42,2.26,10.75c1.47,3.26,3.46,6.17,5.92,8.63c2.48,2.48,5.41,4.45,8.69,5.84c3.31,1.41,6.91,2.12,10.69,2.12h54.41
		v-10.57H684.1c-2.29,0-4.48-0.46-6.52-1.36c-2.08-0.92-3.91-2.15-5.43-3.68c-1.51-1.51-2.7-3.28-3.55-5.28
		c-0.84-1.98-1.27-4.15-1.27-6.45c0-2.32,0.43-4.54,1.28-6.6C669.45,894.6,670.64,892.8,672.14,891.3z"/>
	<polygon class="st0" points="962.03,875.7 962.03,874.7 961.2,875.7 955.86,875.7 920.29,918.17 884.72,875.7 879.63,875.7 
		878.76,874.66 878.76,875.7 874.61,875.7 874.61,930.59 885.4,930.59 885.4,892.98 916.77,930.59 923.8,930.59 955.4,892.94 
		955.4,930.59 965.96,930.59 965.96,875.7 	"/>
	<path class="st0" d="M1162.52,891.3c1.5-1.5,3.3-2.69,5.36-3.54c2.07-0.85,4.29-1.28,6.6-1.28h54.41V875.7h-54.41
		c-3.81,0-7.43,0.76-10.75,2.26c-3.26,1.46-6.16,3.46-8.63,5.92c-2.46,2.46-4.45,5.36-5.92,8.63c-1.5,3.33-2.26,6.95-2.26,10.75
		c0,3.81,0.76,7.42,2.26,10.75c1.47,3.26,3.46,6.17,5.92,8.63c2.48,2.48,5.41,4.45,8.69,5.84c3.31,1.41,6.91,2.12,10.69,2.12h54.41
		v-10.57h-54.41c-2.29,0-4.48-0.46-6.52-1.36c-2.08-0.92-3.91-2.15-5.43-3.68c-1.51-1.51-2.7-3.28-3.55-5.28
		c-0.84-1.98-1.27-4.15-1.27-6.45c0-2.32,0.43-4.54,1.28-6.6C1159.83,894.6,1161.02,892.8,1162.52,891.3z"/>
	<polygon class="st0" points="1367.65,875.7 1367.65,897.75 1304.86,897.75 1304.86,875.7 1294.29,875.7 1294.29,930.59 
		1304.86,930.59 1304.86,908.53 1367.65,908.53 1367.65,930.59 1378.22,930.59 1378.22,875.7 	"/>
	<rect x="1443.85" y="875.7" class="st0" width="10.78" height="54.89"/>
	<polygon class="st0" points="1592.97,875.7 1592.97,916.87 1528.04,875.7 1519.83,875.7 1519.83,930.59 1530.39,930.59 
		1530.39,889.84 1594.89,930.59 1603.75,930.59 1603.75,875.7 	"/>
	<polygon class="st0" points="1751.56,886.48 1751.56,875.7 1669.6,875.7 1669.6,930.59 1751.56,930.59 1751.56,920.02 
		1680.17,920.02 1680.17,908.53 1751.56,908.53 1751.56,897.97 1680.17,897.97 1680.17,886.48 	"/>
	<path class="st0" d="M353.18,875.7l-54.26,54.87h14.75h1.58h42.78h4.55h7.07V875.7H353.18z M325.91,919.78l32.11-32.47v32.47
		H325.91z"/>
	<path class="st0" d="M1028.62,875.7v54.87h7.07h4.55h42.78h1.58h14.75l-54.26-54.87H1028.62z M1040.24,919.78v-32.47l32.11,32.47
		H1040.24z"/>
</g>
<path class="st0" d="M589.55,425.65c-0.33-55.75-43.08-101.42-97.6-106.4c54.53-4.98,97.27-50.65,97.6-106.4
	c0.33,55.75,43.08,101.42,97.6,106.4C632.63,324.23,589.88,369.9,589.55,425.65z"/>
</svg>
